<svg xmlns="http://www.w3.org/2000/svg" viewBox="0 0 1534.88 566"><defs><style>.cls-1{fill:#271957;}.cls-2{fill:#36e1b3;}.cls-3{fill:#fee160;}.cls-4{fill:#32bcfb;}.cls-5{fill:#9f5ffb;}.cls-6{fill:#fbb227;}.cls-7{fill:#f78f6b;}.cls-8{fill:#fff;}</style></defs><title>violian_logo</title><g id="Layer_2" data-name="Layer 2"><g id="Layer_1-2" data-name="Layer 1"><path class="cls-1" d="M274.7,59.73,155.53,420a8,8,0,0,1-15.15,0L44.47,128.75h0A44.43,44.43,0,0,0,2.66,188.22L98.18,469.14a52.84,52.84,0,0,0,49.71,34.94h0a52.82,52.82,0,0,0,49.79-35.16L358.53,0h0A88.69,88.69,0,0,0,274.7,59.73Z"/><path class="cls-1" d="M358.53,271.54V492h45.62V271.54Zm44.19-83.23q-8.18-7.59-21.38-7.57c-8.83,0-15.88,2.51-21.2,7.57a25.4,25.4,0,0,0-8,19.22q0,11.63,8,18.83c5.32,4.8,12.37,7.18,21.2,7.18s15.93-2.38,21.38-7.18S411,215.28,411,207.53A25,25,0,0,0,402.72,188.31Z"/><path class="cls-1" d="M716.25,195.93V492h45.61V195.93Z"/><path class="cls-1" d="M817.09,271.54V492h45.57V271.54Zm44.19-83.23q-8.19-7.59-21.38-7.57t-21.21,7.57c-5.37,5.07-8,11.47-8,19.22s2.64,14,8,18.83,12.38,7.18,21.21,7.18,15.92-2.38,21.38-7.18,8.22-11.08,8.22-18.83A25.15,25.15,0,0,0,861.28,188.31Z"/><path class="cls-1" d="M1087.55,271.54v51.25a79.93,79.93,0,0,0-30-39.22q-21.22-14.79-51.24-14.8-28.75,0-51.42,13.59t-35.4,39.21q-12.79,25.59-12.81,60,0,34.8,12.81,60.42t35.4,39.21q22.67,13.57,51.42,13.59,30.06,0,51.24-14.8a79.9,79.9,0,0,0,30-39.21V492h45.61V271.54ZM1078.76,420a64.21,64.21,0,0,1-24,25.41q-15.2,9-34.41,9-30.37,0-48.6-19.39T953.51,381.6q0-34,18.22-53.45t48.6-19.39q19.22,0,34.41,9a63.87,63.87,0,0,1,24,25.62q8.76,16.62,8.79,38.21C1087.55,396.28,1084.6,409,1078.76,420Z"/><path class="cls-1" d="M1350.43,457.69V492h45.62V452.89a73,73,0,0,0-21.38-2.69A47.27,47.27,0,0,0,1350.43,457.69Zm22.42-164.94Q1349.6,268,1311.22,268q-27.21,0-48,13.59T1233.57,320V271.54H1188V492h45.61V374.77q0-33.57,16.41-51t43.62-17.4q26.43,0,41.64,16.19t15.19,45.79v71.5a68.27,68.27,0,0,1,23.54-5c.91,0,1.82,0,2.77,0a92.7,92.7,0,0,1,19.31,2.08V363.6Q1396.05,317.57,1372.85,292.75Z"/><path class="cls-2" d="M668.68,302.7c-1.64-3-3.46-5.75-5.32-8.48l-43.24,24.93-22.55,13A28.23,28.23,0,0,1,601,345.59v46.66a27.41,27.41,0,0,1-2.25,11l22.85,13.2,43.28,25c1.3-2,2.6-4.11,3.81-6.28q15.84-28.17,15.84-66.43Q684.52,330.85,668.68,302.7ZM647.91,402.81c0,2.25-3.77,3.59-6.41,2.21l-12.29-6.19-20.65-10.52a2.6,2.6,0,0,1-1.64-2.21V351.74a2.6,2.6,0,0,1,1.64-2.21l20.6-10.47,12.34-6.23c2.64-1.39,6.41-.05,6.41,2.2Z"/><path class="cls-3" d="M591.23,413.64A30.33,30.33,0,0,1,571,421.26h-2.83V493q31.06-1.34,56.46-14.78a106.59,106.59,0,0,0,32.57-26.52l-43.16-24.91Z"/><path class="cls-4" d="M589,322.4,612.21,309l43.32-25a107.16,107.16,0,0,0-30.86-24.43Q598,245.4,565,244.7v71.87h6A30.45,30.45,0,0,1,589,322.4Z"/><path class="cls-1" d="M548,349.85l-23.66-13.69a6.21,6.21,0,0,0-9.32,5.39V396.3a6.22,6.22,0,0,0,9.32,5.39L548,388l23.68-13.69a6.23,6.23,0,0,0,0-10.77Z"/><path class="cls-5" d="M537.3,316.57h15V244.86q-29.81,1.69-54.11,14.7a108.85,108.85,0,0,0-26,19.38l43.51,25.12Z"/><path class="cls-6" d="M506.47,421.26h-4c-16.55,0-30-13-30-29V345.6c0-16,13.41-29,30-29h9.27l-5.27-3.05-43-24.82a118.68,118.68,0,0,0-9.37,14q-16.06,28.17-16.06,66t16.06,66.23a118.21,118.21,0,0,0,7.83,12l42.83-24.72Z"/><path class="cls-7" d="M513.49,431.93l-43.21,24.95a107.68,107.68,0,0,0,27.87,21.38q25.59,13.71,57.3,14.81V421.26H532Z"/><path class="cls-1" d="M610.09,221.72a6,6,0,0,1-3-.82,90.45,90.45,0,0,0-91.57,0,6,6,0,0,1-6-10.28,102.35,102.35,0,0,1,103.6,0,6,6,0,0,1-3,11.1Z"/><path class="cls-1" d="M622.92,201.93a5.82,5.82,0,0,1-3-.82,115.8,115.8,0,0,0-117.23,0,6,6,0,0,1-6-10.28,127.76,127.76,0,0,1,129.26,0,6,6,0,0,1-3,11.1Z"/><path class="cls-1" d="M525.93,241a6,6,0,0,1-2.78-11.23,81.9,81.9,0,0,1,76.3,0,6,6,0,0,1-5.54,10.55,70,70,0,0,0-65.22,0A6,6,0,0,1,525.93,241Z"/><path class="cls-1" d="M610.09,517.55a5.85,5.85,0,0,0-3,.82,90.45,90.45,0,0,1-91.57,0,6,6,0,0,0-6,10.28,102.35,102.35,0,0,0,103.6,0,6,6,0,0,0-3-11.1Z"/><path class="cls-1" d="M622.92,537.34a5.82,5.82,0,0,0-3,.82,115.86,115.86,0,0,1-117.23,0,6,6,0,0,0-6,10.28,127.76,127.76,0,0,0,129.26,0,6,6,0,0,0-3-11.1Z"/><path class="cls-1" d="M525.93,498.28a6,6,0,0,0-2.78,11.23,81.9,81.9,0,0,0,76.3,0A6,6,0,0,0,593.91,499a70,70,0,0,1-65.22,0A5.84,5.84,0,0,0,525.93,498.28Z"/><path class="cls-8" d="M1501.3,458.25c1.52-2,39.17-52.54-7.31-125.68l-50.9,165.07c-7.53,24.41-28.82,42.46-54.27,44.53a53.19,53.19,0,0,1-27.48-4.76,51.05,51.05,0,0,1-28.18-36.66c-2.08-11-1.34-24.58,9-36.05a44.93,44.93,0,0,1,8.22-7,47.27,47.27,0,0,1,24.24-7.49,73,73,0,0,1,21.38,2.69c9.61,2.68,20.56,7.61,32.28,16.36l56.57-192.08L1509,285s-1.26,37.13,11.21,52.89S1553.2,419.91,1501.3,458.25Z"/><path class="cls-1" d="M1501.3,458.25c1.52-2,39.17-52.54-7.31-125.68l-50.9,165.07c-7.53,24.41-28.82,42.46-54.27,44.53a53.19,53.19,0,0,1-27.48-4.76,51.05,51.05,0,0,1-28.18-36.66c-2.08-11-1.34-24.58,9-36.05a44.93,44.93,0,0,1,8.22-7,47.27,47.27,0,0,1,24.24-7.49,73,73,0,0,1,21.38,2.69c9.61,2.68,20.56,7.61,32.28,16.36l56.57-192.08L1509,285s-1.26,37.13,11.21,52.89S1553.2,419.91,1501.3,458.25Z"/></g></g></svg>