<svg xmlns="http://www.w3.org/2000/svg" viewBox="0 0 297.13 176"><title>rd_logo</title><g id="Layer_2" data-name="Layer 2"><g id="Layer_1-2" data-name="Layer 1"><path d="M297.13,88a88,88,0,0,1-88,88H143.4l-34.1-42L89,109,54.73,67h68.9a12.5,12.5,0,0,0,0-25H34.24L20.3,25,0,0H123.63a54.51,54.51,0,0,1,17.21,106.23l2,2.42.29.35,20.29,25h45.74a46,46,0,1,0,0-92H186.91c-.15-.77-.32-1.54-.5-2.31A64.37,64.37,0,0,0,174,14.3a62.49,62.49,0,0,0-4.39-5A63.53,63.53,0,0,0,158.12,0h51a87.93,87.93,0,0,1,75,42,87.79,87.79,0,0,1,13,46Z"/></g></g></svg>